<?xml version="1.0" encoding="UTF-8"?>
<svg id="Capa_1" data-name="Capa 1" xmlns="http://www.w3.org/2000/svg" viewBox="0 0 30 30">
  <path d="m19.65,13.84c-.5,0-.88.14-1.16.43-.28.28-.45.66-.52,1.15h3.35c-.04-.52-.21-.91-.52-1.17-.31-.27-.69-.4-1.15-.4Z" fill="#191930"/>
  <path d="m12.35,13.65c.28-.17.42-.47.42-.91,0-.48-.19-.8-.56-.96-.32-.11-.73-.16-1.22-.16h-1.93v2.29h2.19c.45,0,.82-.09,1.1-.26Z" fill="#191930"/>
  <path d="m12.32,15.8c-.25-.11-.59-.17-1.04-.18h-2.23v2.76h2.19c.45,0,.8-.06,1.05-.18.45-.23.68-.66.68-1.29,0-.54-.22-.91-.66-1.11Z" fill="#191930"/>
  <path d="m15,0C6.72,0,0,6.72,0,15s6.72,15,15,15,15-6.72,15-15S23.28,0,15,0Zm2.54,10.25h4.18v1.04h-4.18v-1.04Zm-2.84,8.46c-.2.32-.44.59-.73.81-.33.25-.72.43-1.17.52-.45.09-.94.14-1.46.14h-4.67v-10.37h5.01c1.26.02,2.16.39,2.69,1.1.32.44.47.97.47,1.58s-.16,1.14-.48,1.53c-.18.22-.44.41-.79.59.53.19.93.5,1.2.92.27.42.4.92.4,1.52,0,.62-.15,1.17-.46,1.65Zm8.63-2.02h-5.41c.03.75.29,1.27.78,1.57.29.19.65.28,1.07.28.44,0,.8-.11,1.08-.34.15-.12.28-.29.4-.51h1.98c-.05.44-.29.89-.72,1.34-.66.72-1.6,1.08-2.79,1.08-.99,0-1.86-.31-2.62-.91-.75-.61-1.13-1.6-1.13-2.98,0-1.29.34-2.28,1.02-2.96.68-.69,1.57-1.03,2.66-1.03.65,0,1.23.12,1.75.35.52.23.95.6,1.28,1.1.31.44.5.95.59,1.54.05.34.07.83.06,1.48Z" fill="#191930"/>
</svg>