<?xml version="1.0" encoding="UTF-8"?>
<svg id="Capa_1" data-name="Capa 1" xmlns="http://www.w3.org/2000/svg" viewBox="0 0 34.5 26.32">
  <path d="m23.66,4.67h.07s-.05-.01-.07-.02v.02Z" fill="#110f1a"/>
  <g>
    <path d="m26.41,7.5c-2.32-2.49-3.79-5.25-4.19-7.5h-1.52c-.26,2.38-2.03,5.47-4.89,8.14-2.67,2.48-5.64,3.99-7.98,4.26v1.73c2.43.09,5.72,1.89,8.54,4.91,2.24,2.41,3.69,5.07,4.15,7.28h1.29c.25-2.38,2.02-5.49,4.89-8.16,2.6-2.42,5.49-3.91,7.79-4.23v-1.55c-2.38-.28-5.44-2.04-8.09-4.88Z" fill="#02a994"/>
    <circle cx="2.13" cy="16.59" r="2.13" fill="#02a994"/>
  </g>
</svg>