<?xml version="1.0" encoding="UTF-8"?>
<svg id="Capa_1" data-name="Capa 1" xmlns="http://www.w3.org/2000/svg" viewBox="0 0 40 39.67">
  <path d="m19.9,9.57c-2.75,0-5.36,1.06-7.31,3.01s-3.06,4.52-3.06,7.27,1.06,5.27,3.01,7.22,4.56,3.01,7.31,3.01,5.36-1.06,7.31-3.01c1.95-1.95,3.01-4.52,3.01-7.27s-1.06-5.32-3.01-7.27c-1.86-1.91-4.52-2.97-7.27-2.97Zm6.43,10.28c0,1.68-.71,3.32-1.91,4.48-1.24,1.2-2.88,1.86-4.52,1.86s-3.28-.66-4.52-1.86c-1.24-1.24-1.91-2.79-1.91-4.48s.71-3.32,1.91-4.48c1.15-1.15,2.84-1.86,4.52-1.86s3.28.66,4.52,1.86c1.2,1.24,1.91,2.84,1.91,4.48Z" fill="#110f1a"/>
  <circle cx="30.45" cy="9.35" r="2.44" fill="#110f1a"/>
  <path d="m39.84,11.79c-.13-1.77-.49-3.41-1.02-4.88h0c-.49-1.29-1.29-2.53-2.3-3.55-1.02-1.02-2.26-1.82-3.59-2.3-1.55-.58-3.19-.89-4.83-.93h-.4c-1.82-.09-2.75-.13-7.76-.13-5.41,0-6.07,0-8.15.13-1.68.04-3.37.35-4.83.93-1.33.49-2.53,1.29-3.59,2.3-1.02,1.02-1.82,2.26-2.3,3.55-.58,1.51-.89,3.15-.93,4.79v.4c-.09,1.82-.13,2.7-.13,7.67,0,5.32,0,5.98.13,8.07.04,1.64.35,3.28.93,4.88.49,1.33,1.33,2.53,2.35,3.55,1.15,1.06,2.3,1.82,3.59,2.3,1.64.62,3.28.93,4.83.98h.4c1.82.09,2.75.13,7.76.13,5.41,0,6.07,0,8.15-.13,1.68-.04,3.37-.35,4.83-.93,1.33-.49,2.53-1.29,3.59-2.3.98-.98,1.82-2.22,2.35-3.55.58-1.51.89-3.15.93-4.79v-.4c.09-1.82.13-2.7.13-7.67.04-5.36.04-6.03-.13-8.11Zm-4.08,15.95h0c0,1.11-.22,2.3-.66,3.63-.27.75-.75,1.46-1.42,2.17-.58.62-1.33,1.11-2.17,1.42-1.15.44-2.39.66-3.63.66h-.44c-1.73.09-2.61.13-7.53.13-5.32,0-5.89,0-8.02-.13-1.11,0-2.3-.22-3.59-.66-.75-.27-1.55-.8-2.22-1.42-.58-.53-1.06-1.29-1.46-2.17-.44-1.11-.66-2.3-.66-3.59v-.44c-.09-1.73-.13-2.61-.13-7.49,0-5.27,0-5.85.13-7.98,0-1.11.22-2.3.66-3.59.62-1.64,1.95-2.97,3.63-3.59,1.2-.44,2.35-.66,3.63-.66h.44c1.73-.09,2.61-.13,7.53-.13,5.32,0,5.89,0,8.02.13,1.11,0,2.3.22,3.59.66.8.31,1.55.8,2.17,1.42.62.58,1.11,1.33,1.42,2.17.44,1.11.66,2.35.66,3.59v.44c.09,1.73.13,2.61.13,7.49,0,5.27.04,5.85-.09,7.93Z" fill="#110f1a"/>
</svg>