<?xml version="1.0" encoding="UTF-8"?>
<svg id="Layer_1" data-name="Layer 1" xmlns="http://www.w3.org/2000/svg" viewBox="0 0 30 30">
  <path id="_16" data-name=" 16" d="m4.69,0h20.63c2.59,0,4.69,2.1,4.69,4.68v20.63c0,2.59-2.1,4.68-4.69,4.68H4.69c-2.59,0-4.69-2.1-4.69-4.68V4.69C0,2.1,2.1,0,4.69,0Z" fill="#191930"/>
  <path id="_30" data-name=" 30" d="m14.63,18.26h-4.58l-.94,3.06c-.03.11-.13.18-.24.18h-2.32c-.13,0-.18-.07-.14-.22l3.95-11.42c.04-.12.08-.25.12-.41.06-.22.08-.45.08-.68,0-.06.04-.13.11-.14h3.19c.09,0,.15.04.16.1l4.51,12.56c.04.13,0,.2-.12.2h-2.58c-.09,0-.18-.05-.2-.14l-1-3.08Zm-3.89-2.11h3.36c-.08-.26-.35-.87-.46-1.21s-.25-.59-.37-.97c-.12-.37-.24-.75-.36-1.13-.12-.37-.23-.74-.33-1.09-.1-.35-.19-.67-.27-.96h-.02c-.11.54-.25,1.07-.42,1.59-.18.59-.37,1.2-.56,1.82-.19.63-.39,1.43-.57,1.95h0Z" fill="#fff"/>
  <path id="_31" data-name=" 31" d="m21.21,10.71c-.41.01-.8-.14-1.09-.44-.28-.3-.43-.71-.42-1.13-.01-.42.15-.81.44-1.1.3-.28.69-.44,1.1-.42.42-.02.83.13,1.12.42.28.3.42.69.41,1.1.01.42-.13.83-.42,1.13-.3.3-.72.46-1.14.44Zm-1.28,10.59v-9.06c0-.12.05-.18.16-.18h2.25c.11,0,.16.06.16.18v9.06c0,.13-.05.2-.16.2h-2.23c-.11,0-.18-.06-.18-.2Z" fill="#fff"/>
</svg>