<?xml version="1.0" encoding="UTF-8"?>
<svg id="Layer_1" data-name="Layer 1" xmlns="http://www.w3.org/2000/svg" viewBox="0 0 30 30">
  <path id="_18" data-name=" 18" d="m4.69,0h20.63c2.59,0,4.69,2.1,4.69,4.68v20.63c0,2.59-2.1,4.68-4.69,4.68H4.69c-2.59,0-4.69-2.1-4.69-4.68V4.69C0,2.1,2.1,0,4.69,0Z" fill="#191930"/>
  <path id="_34" data-name=" 34" d="m10.66,8.88v12.42c0,.13-.06.2-.18.2h-2.27c-.11,0-.16-.06-.16-.2v-12.42c0-.11.06-.16.18-.16h2.27c.08,0,.15.04.16.12,0,0,0,.02,0,.04h0Z" fill="#fff"/>
  <path id="_35" data-name=" 35" d="m18.02,21.77c-.91.01-1.81-.18-2.65-.56-.78-.36-1.42-.94-1.86-1.67-.48-.85-.71-1.83-.68-2.81,0-.91.23-1.81.68-2.6.47-.8,1.14-1.47,1.96-1.9.96-.5,2.03-.75,3.11-.71.06,0,.16,0,.26,0s.34.01.48.03v-3.75c0-.09.04-.14.12-.14h2.3c.06,0,.11.04.12.09v11.59c0,.23,0,.47.03.73.02.26.04.5.05.71,0,.08-.04.16-.12.2-.61.27-1.26.47-1.91.59-.63.12-1.26.18-1.9.18Zm1.31-2.46v-5.41c-.14-.03-.29-.05-.43-.06-.13-.01-.27-.02-.41-.02-.48,0-.96.11-1.39.32-.95.45-1.52,1.43-1.45,2.48,0,.43.06.86.2,1.27.12.32.31.63.56.87.23.23.52.4.83.49.33.11.68.16,1.02.16.18,0,.36,0,.52-.02.18,0,.37-.04.54-.08h0Z" fill="#fff"/>
</svg>