<?xml version="1.0" encoding="UTF-8"?>
<svg id="Layer_1" data-name="Layer 1" xmlns="http://www.w3.org/2000/svg" viewBox="0 0 30 30">
  <g id="Surfaces">
    <g id="Photo_Surface" data-name="Photo Surface">
      <g id="Outline_no_shadow" data-name="Outline no shadow">
        <path d="m5.31,0h19.37c2.94,0,5.31,2.44,5.31,5.45v19.1c0,3.01-2.38,5.45-5.31,5.45H5.31c-2.94,0-5.31-2.44-5.31-5.45V5.45C0,2.44,2.38,0,5.31,0Z" fill="#191930"/>
      </g>
    </g>
  </g>
  <g id="Outlined_Mnemonics_Logos" data-name="Outlined Mnemonics Logos">
    <g id="Ps">
      <path d="m6.75,21.03V7.84c0-.09.04-.14.13-.14.21,0,.41,0,.7-.01.3-.01.61-.01.95-.03s.7-.01,1.09-.03.76-.01,1.14-.01c1.02,0,1.88.13,2.58.4.63.22,1.2.58,1.67,1.05.4.41.71.91.91,1.46.19.54.29,1.09.29,1.66,0,1.1-.25,2.01-.75,2.73s-1.2,1.26-2.01,1.56c-.85.32-1.79.43-2.82.43-.3,0-.5,0-.63-.01-.13-.01-.3-.01-.54-.01v4.12c.01.09-.05.17-.13.18h-2.43c-.1.01-.15-.04-.15-.15Zm2.72-10.85v4.31c.18.01.34.03.49.03h.66c.49,0,.97-.08,1.44-.23.4-.12.75-.36,1.02-.68.26-.32.39-.76.39-1.32.01-.4-.08-.8-.29-1.14-.21-.33-.52-.59-.87-.73-.47-.2-.96-.27-1.47-.25-.32,0-.61,0-.85.01-.25-.02-.43,0-.52,0h0Z" fill="#fff"/>
      <path d="m24,13.7c-.37-.2-.78-.35-1.2-.43-.47-.1-.92-.17-1.4-.17-.25-.01-.52.03-.75.09-.16.04-.3.13-.39.25-.06.1-.1.23-.1.35s.05.23.13.33c.11.14.26.25.42.35.29.15.59.3.89.42.68.23,1.33.55,1.93.93.41.27.75.63.99,1.06.2.41.3.86.29,1.32.01.6-.16,1.21-.49,1.71-.35.51-.84.91-1.4,1.14-.61.27-1.36.41-2.26.41-.57,0-1.14-.05-1.7-.17-.44-.08-.87-.22-1.28-.41-.08-.05-.15-.14-.13-.25v-2.23s.01-.09.05-.12.08-.01.11.01c.49.3,1,.5,1.55.63.47.13.97.2,1.47.2.47,0,.81-.07,1.04-.18.2-.09.34-.31.34-.54,0-.18-.1-.35-.3-.51-.2-.17-.61-.36-1.23-.6-.63-.23-1.23-.54-1.78-.93-.39-.28-.71-.65-.95-1.09-.2-.41-.3-.86-.29-1.31,0-.55.15-1.08.42-1.55.31-.51.78-.93,1.31-1.18.59-.31,1.33-.45,2.22-.45.52,0,1.04.04,1.55.12.37.05.74.15,1.07.3.05.01.1.07.13.12.01.05.03.1.03.15v2.09c0,.05-.03.1-.06.13-.12.03-.18.03-.23,0Z" fill="#fff"/>
    </g>
  </g>
</svg>